<?xml version="1.0" encoding="utf-8" ?><svg xmlns="http://www.w3.org/2000/svg" xmlns:xlink="http://www.w3.org/1999/xlink" width="1024" height="1024" viewBox="0 0 1024 1024"><path fill="#92FDCD" d="M489.808 324.001L821.37 323.92C790.084 355.232 759.834 388.612 728.653 420.187C706.153 420.911 680.299 420.447 657.619 420.465L526.594 420.571C514.889 432.204 497.905 450.907 486.87 463.477L741.044 463.533C734.016 471.477 720.835 483.874 713.039 491.708L661.84 543.504L659.119 546.056L535.319 546.066L535.339 605.891L769.862 605.924C755.771 620.47 741.525 634.865 727.126 649.106L676.517 700.049L487.935 700.058C484.553 696.943 479.734 691.405 476.444 687.839L455.131 664.707C429.319 636.706 402.265 606.402 375.973 579.157C374.246 580.969 372.543 582.802 370.862 584.657L370.787 700.142C334.73 701.259 294.759 699.94 258.091 700.177C262.056 695.716 276.92 679.897 279.416 676.071L279.477 323.931C308.65 324.614 341.445 324.217 370.731 323.988C369.907 364.319 370.574 407.05 370.545 447.559L447.04 368.542L472.879 341.62C478.158 336.052 484.278 329.174 489.808 324.001Z"/><path fill="#193831" d="M284.339 328.733L365.804 328.68L365.939 459.982L446.282 376.539C461.39 360.85 477.032 344.06 492.419 328.761C503.594 328.349 516.039 328.629 527.367 328.631L596.512 328.71L809.503 328.745C799.463 339.858 787.953 351.267 777.461 362.132L726.153 415.483L524.3 415.493C519.144 420.642 512.838 427.926 507.675 433.457C496.813 444.953 486.099 456.588 475.537 468.36L729.242 468.383L657.166 541.351C641.911 541.075 625.937 541.316 610.625 541.315L530.086 541.405C530.35 564.487 530.336 587.571 530.044 610.652C605.624 609.722 682.423 610.898 758.168 610.546C731.235 638.608 702.138 667.711 674.563 695.252L575.861 695.327C547.435 695.365 518.582 695.658 490.193 695.307C451.86 654.509 414.405 612.439 376.009 571.713L365.602 583.141C365.292 620.428 366.135 657.985 365.739 695.379L268.877 695.323C283.89 678.737 299.381 662.473 314.124 645.637L313.643 639.028C304.381 648.321 293.098 661.323 284.048 671.216C284.405 660.382 284.123 648.364 284.125 637.41L284.208 575.79L284.339 328.733Z"/><path fill="#92FDCD" d="M292.601 337.501L357.429 337.479L357.41 481.517C403.783 434.009 449.243 384.938 495.753 337.492L580.545 337.531C553.638 365.957 526.709 395.727 500.14 424.561L292.618 648.981L292.601 337.501Z"/><path fill="#92FDCD" d="M488.883 476.743C513.686 476.302 539.764 476.725 564.688 476.736L709.055 476.755L653.451 532.932L608.75 532.927L521.599 532.936L521.497 595.376C514.207 587.839 506.235 578.588 499.112 570.76L446.317 512.617C458.267 501.012 469.912 488.616 481.799 476.848L488.883 476.743Z"/><path fill="#92FDCD" d="M602.659 337.501L789.307 337.546L722.458 407.032C661.137 406.305 598.221 406.949 536.784 407.002C543.723 399.141 552.29 390.574 559.599 382.91L602.659 337.501Z"/><path fill="#92FDCD" d="M432.167 525.036C434.94 527.468 444.1 538.274 446.944 541.498L477.257 575.879L575.084 686.554L531.75 686.525L493.807 686.548C459.021 648.507 423.102 610.713 388.694 572.433C402.933 556.484 417.789 540.91 432.167 525.036Z"/><path fill="#92FDCD" d="M534.382 619.43C559.111 618.84 585.291 619.293 610.169 619.306L737.484 619.346C726.709 630.793 714.835 642.476 703.722 653.652C693.069 663.965 681.81 675.904 671.19 686.517L594.437 686.545C575.761 664.549 553.83 641.031 534.382 619.43Z"/><path fill="#92FDCD" d="M356.776 611.414C357.896 612.623 357.381 633.807 357.374 636.835C357.287 653.414 357.308 669.994 357.437 686.573L290.105 686.517L289.705 685.825C292.318 682.034 305.686 668.031 309.43 663.815C325.001 646.282 341.334 629.087 356.776 611.414Z"/></svg>