<?xml version="1.0" encoding="UTF-8" standalone="no"?><!DOCTYPE svg PUBLIC "-//W3C//DTD SVG 1.1//EN" "http://www.w3.org/Graphics/SVG/1.1/DTD/svg11.dtd"><svg width="100%" height="100%" viewBox="1435 1800 3130 2090" version="1.1" xmlns="http://www.w3.org/2000/svg" xmlns:xlink="http://www.w3.org/1999/xlink" xml:space="preserve" xmlns:serif="http://www.serif.com/" style="fill-rule:evenodd;clip-rule:evenodd;stroke-linejoin:round;stroke-miterlimit:2;"><g><path d="M2721.156,1800.006l1842.011,-0.45c-173.811,173.956 -341.867,359.4 -515.094,534.817c-125,4.022 -268.633,1.444 -394.633,1.544l-727.917,0.589c-65.028,64.628 -159.383,168.533 -220.689,238.367l1412.078,0.311c-39.044,44.133 -112.272,113.006 -155.583,156.528l-284.439,287.756l-15.117,14.178l-687.778,0.056l0.111,332.361l1302.906,0.183c-78.283,80.811 -157.428,160.783 -237.422,239.9l-281.161,283.017l-1047.678,0.05c-18.789,-17.306 -45.561,-48.072 -63.839,-67.883l-118.406,-128.511c-143.4,-155.561 -293.7,-323.917 -439.767,-475.278c-9.594,10.067 -19.056,20.25 -28.394,30.556l-0.417,641.583c-200.317,6.206 -422.378,-1.122 -626.089,0.194c22.028,-24.783 104.606,-112.667 118.472,-133.922l0.339,-1956.333c162.072,3.794 344.267,1.589 506.967,0.317c-4.578,224.061 -0.872,461.456 -1.033,686.506l424.972,-438.983l143.55,-149.567c29.328,-30.933 63.328,-69.144 94.05,-97.883Z" style="fill:#92fdcd;fill-rule:nonzero;"/><path d="M1579.661,1826.294l452.583,-0.294l0.75,729.456l446.35,-463.572c83.933,-87.161 170.833,-180.439 256.317,-265.433c62.083,-2.289 131.222,-0.733 194.156,-0.722l384.139,0.439l1183.283,0.194c-55.778,61.739 -119.722,125.122 -178.011,185.483l-285.044,296.394l-1121.406,0.056c-28.644,28.606 -63.678,69.072 -92.361,99.8c-60.344,63.867 -119.867,128.506 -178.544,193.906l1409.472,0.128l-400.422,405.378c-84.75,-1.533 -173.494,-0.194 -258.561,-0.2l-447.439,0.5c1.467,128.233 1.389,256.478 -0.233,384.706c419.889,-5.167 846.55,1.367 1267.356,-0.589c-149.628,155.9 -311.278,317.583 -464.472,470.589l-548.344,0.417c-157.922,0.211 -318.217,1.839 -475.933,-0.111c-212.961,-226.656 -421.044,-460.378 -634.356,-686.633l-57.817,63.489c-1.722,207.15 2.961,415.8 0.761,623.544l-538.122,-0.311c83.406,-92.144 169.467,-182.5 251.372,-276.033l-2.672,-36.717c-51.456,51.628 -114.139,123.861 -164.417,178.822c1.983,-60.189 0.417,-126.956 0.428,-187.811l0.461,-342.333l0.728,-1372.539Z" style="fill:#193831;fill-rule:nonzero;"/><path d="M1625.561,1875.006l360.156,-0.122l-0.106,800.211c257.628,-263.933 510.183,-536.55 768.572,-800.139l471.067,0.217c-149.483,157.922 -299.089,323.311 -446.694,483.5l-1152.9,1246.778l-0.094,-1730.444Z" style="fill:#92fdcd;fill-rule:nonzero;"/><path d="M2716.017,2648.572c137.794,-2.45 282.672,-0.1 421.139,-0.039l802.039,0.106l-308.911,312.094l-248.339,-0.028l-484.172,0.05l-0.567,346.889c-40.5,-41.872 -84.789,-93.267 -124.361,-136.756l-293.306,-323.017c66.389,-64.472 131.083,-133.339 197.122,-198.717l39.356,-0.583Z" style="fill:#92fdcd;fill-rule:nonzero;"/><path d="M3348.106,1875.006l1036.933,0.25l-371.383,386.033c-340.672,-4.039 -690.206,-0.461 -1031.522,-0.167c38.55,-43.672 86.144,-91.267 126.75,-133.844l239.222,-252.272Z" style="fill:#92fdcd;fill-rule:nonzero;"/><path d="M2400.928,2916.867c15.406,13.511 66.294,73.544 82.094,91.456l168.406,191.006l543.483,614.861l-240.744,-0.161l-210.794,0.128c-193.256,-211.339 -392.806,-421.306 -583.961,-633.972c79.106,-88.606 161.639,-175.128 241.517,-263.317Z" style="fill:#92fdcd;fill-rule:nonzero;"/><path d="M2968.789,3441.278c137.383,-3.278 282.828,-0.761 421.039,-0.689l707.306,0.222c-59.861,63.594 -125.828,128.5 -187.567,190.589c-59.183,57.294 -121.733,123.622 -180.733,182.583l-426.406,0.156c-103.756,-122.2 -225.594,-252.856 -333.639,-372.861Z" style="fill:#92fdcd;fill-rule:nonzero;"/><path d="M1982.089,3396.744c6.222,6.717 3.361,124.406 3.322,141.228c-0.483,92.106 -0.367,184.217 0.35,276.322l-374.067,-0.311l-2.222,-3.844c14.517,-21.061 88.783,-98.856 109.583,-122.278c86.506,-97.406 177.244,-192.933 263.033,-291.117Z" style="fill:#92fdcd;fill-rule:nonzero;"/></g></svg>
